<mxfile host="app.diagrams.net" agent="Mozilla/5.0 (Windows NT 10.0; Win64; x64) AppleWebKit/537.36 (KHTML, like Gecko) Chrome/136.0.0.0 Safari/537.36 Edg/136.0.0.0" version="27.0.6">
  <diagram name="Arquitetura Vision" id="vision-diagrama">
    <mxGraphModel dx="1034" dy="570" grid="1" gridSize="10" guides="1" tooltips="1" connect="1" arrows="1" fold="1" page="1" pageScale="1" pageWidth="827" pageHeight="1169" math="0" shadow="0">
      <root>
        <mxCell id="0" />
        <mxCell id="1" parent="0" />
        <mxCell id="user" value="UsuÃ¡rio" style="shape=ellipse;whiteSpace=wrap;html=1;" parent="1" vertex="1">
          <mxGeometry x="400" y="20" width="100" height="60" as="geometry" />
        </mxCell>
        <mxCell id="frontend" value="Front-end&#xa;(Vue.js + PrimeVue + Chart.js)" style="shape=rectangle;rounded=1;whiteSpace=wrap;html=1;fillColor=#DAE8FC;" parent="1" vertex="1">
          <mxGeometry x="350" y="100" width="220" height="80" as="geometry" />
        </mxCell>
        <mxCell id="figma" value="Figma (Design UI/UX)" style="shape=rectangle;rounded=1;whiteSpace=wrap;html=1;fillColor=#FFF2CC;" parent="1" vertex="1">
          <mxGeometry x="100" y="100" width="160" height="60" as="geometry" />
        </mxCell>
        <mxCell id="docker_front" value="Docker (Front-end)" style="shape=rectangle;rounded=1;whiteSpace=wrap;html=1;fillColor=#F8CECC;" parent="1" vertex="1">
          <mxGeometry x="600" y="100" width="160" height="60" as="geometry" />
        </mxCell>
        <mxCell id="backend" value="Back-end&#xa;(Spring Boot + Java 21)" style="shape=rectangle;rounded=1;whiteSpace=wrap;html=1;fillColor=#FFE6CC;" parent="1" vertex="1">
          <mxGeometry x="350" y="280" width="220" height="80" as="geometry" />
        </mxCell>
        <mxCell id="docker_back" value="Docker (Back-end)" style="shape=rectangle;rounded=1;whiteSpace=wrap;html=1;fillColor=#F8CECC;" parent="1" vertex="1">
          <mxGeometry x="600" y="280" width="160" height="60" as="geometry" />
        </mxCell>
        <mxCell id="swagger" value="Swagger (API Docs)" style="shape=rectangle;rounded=1;whiteSpace=wrap;html=1;fillColor=#E1D5E7;" parent="1" vertex="1">
          <mxGeometry x="100" y="280" width="160" height="60" as="geometry" />
        </mxCell>
        <mxCell id="sonar" value="SonarSource (Code Quality)" style="shape=rectangle;rounded=1;whiteSpace=wrap;html=1;fillColor=#E1D5E7;" parent="1" vertex="1">
          <mxGeometry x="100" y="350" width="160" height="60" as="geometry" />
        </mxCell>
        <mxCell id="github" value="GitHub (CI/CD)" style="shape=rectangle;rounded=1;whiteSpace=wrap;html=1;fillColor=#F5F5F5;" parent="1" vertex="1">
          <mxGeometry x="600" y="350" width="160" height="60" as="geometry" />
        </mxCell>
        <mxCell id="db" value="&lt;div&gt;&lt;br&gt;&lt;/div&gt;&lt;div&gt;&lt;span style=&quot;background-color: transparent; color: light-dark(rgb(0, 0, 0), rgb(255, 255, 255));&quot;&gt;Banco de Dados&lt;/span&gt;&lt;/div&gt;(PostgreSQL)" style="shape=cylinder;whiteSpace=wrap;html=1;fillColor=#E1D5E7;" parent="1" vertex="1">
          <mxGeometry x="370" y="380" width="180" height="80" as="geometry" />
        </mxCell>
        <mxCell id="taiga" value="Taiga REST API" style="shape=rectangle;rounded=1;whiteSpace=wrap;html=1;fillColor=#D5E8D4;" parent="1" vertex="1">
          <mxGeometry x="600" y="200" width="150" height="60" as="geometry" />
        </mxCell>
        <mxCell id="ZTiR1um5AHAYh99iOtg9-1" style="endArrow=block;html=1;" parent="1" source="user" target="frontend" edge="1">
          <mxGeometry relative="1" as="geometry" />
        </mxCell>
        <mxCell id="ZTiR1um5AHAYh99iOtg9-2" style="endArrow=block;html=1;" parent="1" source="frontend" target="figma" edge="1">
          <mxGeometry relative="1" as="geometry" />
        </mxCell>
        <mxCell id="ZTiR1um5AHAYh99iOtg9-3" style="endArrow=block;html=1;" parent="1" source="frontend" target="docker_front" edge="1">
          <mxGeometry relative="1" as="geometry" />
        </mxCell>
        <mxCell id="ZTiR1um5AHAYh99iOtg9-4" style="endArrow=block;html=1;" parent="1" source="frontend" target="backend" edge="1">
          <mxGeometry relative="1" as="geometry" />
        </mxCell>
        <mxCell id="ZTiR1um5AHAYh99iOtg9-5" style="endArrow=block;html=1;" parent="1" source="backend" target="docker_back" edge="1">
          <mxGeometry relative="1" as="geometry" />
        </mxCell>
        <mxCell id="ZTiR1um5AHAYh99iOtg9-6" style="endArrow=block;html=1;" parent="1" source="backend" target="swagger" edge="1">
          <mxGeometry relative="1" as="geometry" />
        </mxCell>
        <mxCell id="ZTiR1um5AHAYh99iOtg9-7" style="endArrow=block;html=1;" parent="1" source="backend" target="sonar" edge="1">
          <mxGeometry relative="1" as="geometry" />
        </mxCell>
        <mxCell id="ZTiR1um5AHAYh99iOtg9-8" style="endArrow=block;html=1;" parent="1" source="backend" target="github" edge="1">
          <mxGeometry relative="1" as="geometry" />
        </mxCell>
        <mxCell id="ZTiR1um5AHAYh99iOtg9-9" style="endArrow=block;html=1;" parent="1" source="backend" target="db" edge="1">
          <mxGeometry relative="1" as="geometry" />
        </mxCell>
        <mxCell id="ZTiR1um5AHAYh99iOtg9-10" style="endArrow=block;dashed=1;html=1;" parent="1" source="backend" target="taiga" edge="1">
          <mxGeometry relative="1" as="geometry" />
        </mxCell>
      </root>
    </mxGraphModel>
  </diagram>
</mxfile>
